<svg width="480" height="235" viewBox="0 0 480 235" fill="none" xmlns="http://www.w3.org/2000/svg">
<g filter="url(#filter0_d_13_18)">
<g clip-path="url(#clip0_13_18)">
<path d="M25.0374 172.736L19.701 170.132C19.6376 170.1 19.6051 170.036 19.5725 169.971L16.9369 164.635C16.4861 163.703 15.3294 163.316 14.3963 163.766C14.0188 163.952 13.7135 164.257 13.5283 164.635L10.8927 169.971C10.8577 170.031 10.8144 170.085 10.7642 170.132L5.42778 172.768C4.49554 173.218 4.10906 174.376 4.55889 175.308C4.74433 175.686 5.04993 175.991 5.42778 176.177L10.7642 178.78C10.8275 178.812 10.8601 178.877 10.8927 178.908L13.5609 184.245C14.0107 185.177 15.1683 185.563 16.1006 185.114C16.4781 184.928 16.7833 184.622 16.9685 184.245L19.5725 178.908C19.6051 178.845 19.6693 178.78 19.701 178.78L25.0374 176.144C25.9696 175.693 26.3561 174.537 25.9063 173.604C25.7452 173.218 25.4239 172.929 25.0374 172.736ZM21.084 173.122L18.6086 175.276C18.1262 175.726 17.7723 176.304 17.6437 176.948L17.0011 180.162C16.9685 180.291 16.84 180.388 16.7115 180.356C16.6472 180.356 16.6147 180.323 16.583 180.259L14.4289 177.783C13.979 177.301 13.3998 176.948 12.7572 176.818L9.5423 176.176C9.41378 176.144 9.31694 176.015 9.34952 175.886C9.34952 175.823 9.3812 175.79 9.44546 175.758L11.9209 173.604C12.4033 173.154 12.7572 172.575 12.8857 171.932L13.5283 168.718C13.5609 168.588 13.6894 168.492 13.8179 168.524C13.8662 168.532 13.911 168.555 13.9465 168.588L16.1006 171.064C16.5504 171.546 17.1297 171.9 17.7723 172.029L20.9871 172.671C21.1157 172.704 21.2125 172.832 21.1799 172.961C21.1626 173.022 21.1296 173.078 21.084 173.122Z" fill="#717171" fill-opacity="0.28"/>
</g>
<g clip-path="url(#clip1_13_18)">
<path d="M474.413 9.81981L469.077 7.21588C469.013 7.1842 468.981 7.11994 468.948 7.05568L466.313 1.71928C465.862 0.78704 464.705 0.400567 463.772 0.850396C463.395 1.03599 463.089 1.34158 462.904 1.71928L460.268 7.05568C460.233 7.11491 460.19 7.16885 460.14 7.21588L454.804 9.8524C453.871 10.3022 453.485 11.4598 453.935 12.3921C454.12 12.7699 454.426 13.0755 454.804 13.261L460.14 15.864C460.203 15.8966 460.236 15.9608 460.268 15.9925L462.937 21.3289C463.386 22.2611 464.544 22.6476 465.476 22.1978C465.854 22.0122 466.159 21.7066 466.344 21.3289L468.948 15.9925C468.981 15.9292 469.045 15.864 469.077 15.864L474.413 13.2284C475.345 12.7776 475.732 11.6209 475.282 10.6887C475.121 10.3022 474.8 10.0135 474.413 9.81981ZM470.46 10.2063L467.984 12.3604C467.502 12.8102 467.148 13.3886 467.019 14.0321L466.377 17.2461C466.344 17.3755 466.216 17.4723 466.087 17.4397C466.023 17.4397 465.99 17.4072 465.959 17.3429L463.805 14.8675C463.355 14.3851 462.776 14.0321 462.133 13.9027L458.918 13.26C458.79 13.2284 458.693 13.0989 458.725 12.9704C458.725 12.9071 458.757 12.8745 458.821 12.8419L461.297 10.6878C461.779 10.238 462.133 9.65961 462.261 9.0161L462.904 5.80213C462.937 5.6727 463.065 5.57586 463.194 5.60844C463.242 5.6165 463.287 5.63889 463.322 5.6727L465.476 8.14812C465.926 8.63053 466.505 8.98442 467.148 9.11294L470.363 9.75555C470.491 9.78813 470.588 9.91666 470.556 10.0452C470.538 10.1064 470.505 10.1619 470.46 10.2063Z" fill="#717171" fill-opacity="0.28"/>
</g>
<g clip-path="url(#clip2_13_18)">
<path d="M143.283 42.616L138.614 40.3375C138.558 40.3098 138.53 40.2536 138.501 40.1974L136.195 35.528C135.801 34.7123 134.789 34.3741 133.972 34.7677C133.642 34.9301 133.375 35.1975 133.213 35.528L130.907 40.1974C130.876 40.2492 130.838 40.2964 130.794 40.3375L126.125 42.6445C125.309 43.0381 124.971 44.051 125.365 44.8667C125.527 45.1973 125.794 45.4647 126.125 45.627L130.794 47.9046C130.85 47.9331 130.878 47.9894 130.907 48.0171L133.241 52.6864C133.635 53.5021 134.648 53.8403 135.464 53.4467C135.794 53.2843 136.061 53.0169 136.223 52.6864L138.501 48.0171C138.53 47.9617 138.586 47.9046 138.614 47.9046L143.283 45.5985C144.099 45.2041 144.437 44.192 144.044 43.3763C143.903 43.0381 143.621 42.7855 143.283 42.616ZM139.824 42.9541L137.658 44.839C137.236 45.2326 136.926 45.7387 136.814 46.3017L136.252 49.1139C136.223 49.2272 136.111 49.3119 135.998 49.2834C135.942 49.2834 135.913 49.2549 135.886 49.1987L134.001 47.0327C133.607 46.6106 133.1 46.3017 132.538 46.1885L129.725 45.6262C129.613 45.5985 129.528 45.4852 129.556 45.3728C129.556 45.3173 129.584 45.2888 129.64 45.2603L131.806 43.3755C132.228 42.9819 132.538 42.4758 132.651 41.9127L133.213 39.1005C133.241 38.9873 133.354 38.9025 133.466 38.931C133.508 38.9381 133.548 38.9577 133.579 38.9873L135.464 41.1533C135.857 41.5754 136.364 41.885 136.926 41.9975L139.739 42.5598C139.852 42.5883 139.936 42.7007 139.908 42.8132C139.893 42.8667 139.864 42.9153 139.824 42.9541Z" fill="#717171" fill-opacity="0.28"/>
</g>
<path d="M413.584 216.606L409.581 214.653C409.534 214.629 409.51 214.581 409.485 214.533L407.508 210.53C407.17 209.831 406.303 209.541 405.603 209.879C405.32 210.018 405.091 210.247 404.952 210.53L402.975 214.533C402.949 214.577 402.917 214.618 402.879 214.653L398.877 216.63C398.177 216.968 397.888 217.836 398.225 218.535C398.364 218.818 398.593 219.048 398.877 219.187L402.879 221.139C402.926 221.163 402.951 221.212 402.975 221.235L404.976 225.238C405.314 225.937 406.182 226.227 406.881 225.889C407.164 225.75 407.393 225.521 407.532 225.238L409.485 221.235C409.51 221.188 409.558 221.139 409.581 221.139L413.584 219.162C414.283 218.824 414.573 217.957 414.235 217.257C414.115 216.968 413.874 216.751 413.584 216.606ZM410.619 216.896L408.762 218.511C408.4 218.849 408.135 219.282 408.039 219.765L407.557 222.175C407.532 222.273 407.436 222.345 407.339 222.321C407.291 222.321 407.267 222.296 407.243 222.248L405.627 220.392C405.29 220.03 404.856 219.765 404.374 219.668L401.962 219.186C401.866 219.162 401.793 219.065 401.818 218.969C401.818 218.921 401.842 218.897 401.89 218.872L403.746 217.257C404.108 216.919 404.374 216.486 404.47 216.003L404.952 213.593C404.976 213.495 405.073 213.423 405.169 213.447C405.205 213.453 405.239 213.47 405.266 213.495L406.881 215.352C407.219 215.714 407.653 215.979 408.135 216.076L410.546 216.558C410.642 216.582 410.715 216.678 410.691 216.775C410.678 216.821 410.653 216.862 410.619 216.896Z" fill="#717171" fill-opacity="0.28"/>
</g>
<defs>
<filter id="filter0_d_13_18" x="0.371338" y="0.662842" width="479.098" height="233.367" filterUnits="userSpaceOnUse" color-interpolation-filters="sRGB">
<feFlood flood-opacity="0" result="BackgroundImageFix"/>
<feColorMatrix in="SourceAlpha" type="matrix" values="0 0 0 0 0 0 0 0 0 0 0 0 0 0 0 0 0 0 127 0" result="hardAlpha"/>
<feOffset dy="4"/>
<feGaussianBlur stdDeviation="2"/>
<feComposite in2="hardAlpha" operator="out"/>
<feColorMatrix type="matrix" values="0 0 0 0 0 0 0 0 0 0 0 0 0 0 0 0 0 0 0.25 0"/>
<feBlend mode="normal" in2="BackgroundImageFix" result="effect1_dropShadow_13_18"/>
<feBlend mode="normal" in="SourceGraphic" in2="effect1_dropShadow_13_18" result="shape"/>
</filter>
<clipPath id="clip0_13_18">
<rect width="21.7221" height="21.7221" fill="white" transform="translate(4.37134 163.579)"/>
</clipPath>
<clipPath id="clip1_13_18">
<rect width="21.7221" height="21.7221" fill="white" transform="translate(453.747 0.662842)"/>
</clipPath>
<clipPath id="clip2_13_18">
<rect width="19.0068" height="19.0068" fill="white" transform="translate(125.2 34.6036)"/>
</clipPath>
</defs>
</svg>
